PathFileType	4	(X/Y/Z)	./resultDataOpenSim/trcMotMarkerGrf/sub09/qtm-12-04.trc
DataRate	CameraRate	NumFrames	NumMarkers	Units	OrigDataRate	OrigDataStartFrame	OrigNumFrames
250.000000	250.000000	9	24	m	250.000000	1	481
Frame#	Time	L.Toe.Tip			R.Toe.Tip			L.Ankle.Lat			R.Ankle.Lat			L.Ankle.Med			R.Ankle.Med			L.Heel			R.Heel			L.Knee.Lat			R.Knee.Lat			L.Knee.Med			R.Knee.Med			L.Thigh.Upper			R.Thigh.Upper			L.ASIS			R.ASIS			V.Sacral			L.Acromium			R.Acromium			C7			L.Elbow			R.Elbow			L.Wrist.Lat			R.Wrist.Lat
		X1	Y1	Z1	X2	Y2	Z2	X3	Y3	Z3	X4	Y4	Z4	X5	Y5	Z5	X6	Y6	Z6	X7	Y7	Z7	X8	Y8	Z8	X9	Y9	Z9	X10	Y10	Z10	X11	Y11	Z11	X12	Y12	Z12	X13	Y13	Z13	X14	Y14	Z14	X15	Y15	Z15	X16	Y16	Z16	X17	Y17	Z17	X18	Y18	Z18	X19	Y19	Z19	X20	Y20	Z20	X21	Y21	Z21	X22	Y22	Z22	X23	Y23	Z23	X24	Y24	Z24

1	0	-1.4831577	0.036709171	-0.058146373	-0.98691214	0.071935141	0.057781942	-1.634217	0.078856808	-0.084675081	-1.1351238	0.074086138	0.083028701	-1.6040542	0.096249355	0.0073833132	-1.122366	0.11196267	-0.0074305554	NaN	NaN	NaN	-1.1924539	0.041972284	0.025447689	-1.4942224	0.47377483	-0.14826841	-1.1377069	0.53002261	0.13555521	-1.4905883	0.47375653	-0.021902873	-1.1388682	0.51446721	0.009051523	-1.3815392	0.88101604	-0.19262473	-1.3484599	0.87710215	0.17712443	-1.2742006	0.95132424	-0.13976345	-1.2683419	0.95771295	0.10050928	-1.4327732	1.0227938	-0.0089204387	-1.2222561	1.4032749	-0.16806499	-1.255753	1.4140185	0.15851338	-1.3006723	1.4639129	-0.0075876183	-1.3443754	1.0496008	-0.25757413	-1.4369032	1.104849	0.24452851	-1.1154178	0.90408566	-0.22207325	-1.3565861	0.84426984	0.26181041
2	0.004	-1.4832069	0.036610367	-0.05811784	-0.96706085	0.073655239	0.058475256	-1.6340653	0.079474939	-0.084382118	-1.1158537	0.072882578	0.083199574	-1.6035582	0.096707333	0.007670444	-1.103431	0.11125647	-0.0070317396	NaN	NaN	NaN	-1.1720135	0.040021083	0.02565584	-1.4919104	0.47364825	-0.1482662	-1.1307991	0.52894684	0.13603868	-1.4883357	0.47359601	-0.021730802	-1.1310988	0.51328043	0.0093745016	-1.3760508	0.87963539	-0.19238395	-1.3422556	0.87528229	0.1772672	-1.2680793	0.94955946	-0.13988901	-1.2618409	0.95597063	0.10060766	-1.426453	1.0210099	-0.0088718024	-1.2162273	1.4017266	-0.16787469	-1.2500379	1.4122717	0.15871104	-1.2950627	1.4623788	-0.0075487024	-1.3373299	1.0476366	-0.25809225	-1.4308666	1.102774	0.24449168	-1.1072748	0.904057	-0.22136548	-1.3502607	0.84242236	0.26241617
3	0.008	-1.4832314	0.036531573	-0.058114649	-0.94729435	0.075638334	0.059194428	-1.6339081	0.080089688	-0.084093339	-1.0965613	0.071909183	0.083455157	-1.6030735	0.097183093	0.0079136992	-1.0845883	0.11072117	-0.0066040522	NaN	NaN	NaN	-1.1516965	0.038213159	0.025863871	-1.4894963	0.4735186	-0.14825019	-1.1243797	0.52770032	0.1363408	-1.4858916	0.4734202	-0.021591505	-1.1233421	0.51205539	0.0096696584	-1.3705397	0.87827014	-0.19222424	-1.3360583	0.87344411	0.17741669	-1.2619604	0.94781066	-0.14000262	-1.255325	0.95421435	0.10069391	-1.4201144	1.0192239	-0.0087761367	-1.210192	1.4001774	-0.16769313	-1.2443252	1.4105006	0.15891265	-1.2894132	1.4608299	-0.0075069183	-1.3302593	1.0456616	-0.25852631	-1.4247955	1.1006953	0.2444407	-1.0991638	0.90398551	-0.22066548	-1.3439157	0.84055312	0.26302845
4	0.012	-1.483223	0.036474974	-0.058137405	-0.92769074	0.078063388	0.059954468	-1.6337313	0.080718214	-0.083823842	-1.0773689	0.071235059	0.083788077	-1.6025836	0.097685062	0.0081014648	-1.0659179	0.1104429	-0.0061353181	NaN	NaN	NaN	-1.1315489	0.036613034	0.026114593	-1.4869193	0.47337248	-0.14822045	-1.1185712	0.52620452	0.13641818	-1.483213	0.47321042	-0.021500197	-1.1155946	0.51076455	0.0099266244	-1.3649675	0.87691153	-0.19210057	-1.329844	0.87157275	0.17757959	-1.2558342	0.94607429	-0.14009908	-1.2487716	0.95243759	0.10075999	-1.4137529	1.017425	-0.0086493836	-1.2041183	1.39862	-0.16751463	-1.2385888	1.4086972	0.15912083	-1.2836508	1.4592131	-0.0074734198	-1.323147	1.0436733	-0.25884711	-1.4186653	1.0985875	0.2443657	-1.091092	0.90384887	-0.21997339	-1.3375256	0.83865271	0.2636454
5	0.016	-1.4831912	0.036428242	-0.058170407	-0.9084024	0.080963351	0.060758898	-1.6335168	0.081380997	-0.083595953	-1.0584855	0.070807939	0.084146433	-1.6020622	0.098208493	0.0082478658	-1.0475325	0.11042398	-0.0056299473	NaN	NaN	NaN	-1.1116096	0.035203618	0.026475589	-1.4841486	0.47319437	-0.14819135	-1.1127877	0.52458246	0.13646014	-1.4803414	0.47296206	-0.021447758	-1.1078685	0.50940178	0.010151158	-1.3593017	0.87553789	-0.19188445	-1.3235811	0.86966586	0.17776019	-1.2497019	0.94434187	-0.14017732	-1.2421723	0.95065217	0.10080515	-1.4073963	1.0155971	-0.0085467335	-1.1979629	1.397044	-0.16732002	-1.2328201	1.4068728	0.15933896	-1.2777522	1.4574598	-0.0074518591	-1.316008	1.0416824	-0.25908951	-1.412478	1.0964312	0.24426814	-1.0830636	0.90364102	-0.21928649	-1.3310883	0.83673244	0.26426451
6	0.02	-1.483151	0.036380631	-0.058200015	-0.88960031	0.084260974	0.061591762	-1.6332498	0.082081516	-0.083423207	-1.0400006	0.070583895	0.084520542	-1.6015122	0.098739532	0.008366218	-1.0295169	0.11063429	-0.0050961019	NaN	NaN	NaN	-1.0919104	0.033932452	0.027018564	-1.4811542	0.47296915	-0.14817129	-1.1062241	0.52303561	0.13672449	-1.4772749	0.4726823	-0.02141969	-1.1002069	0.50796977	0.010344955	-1.3535344	0.87413254	-0.1915082	-1.317245	0.86772869	0.17795989	-1.243572	0.94260891	-0.14023724	-1.2355058	0.94886648	0.10082266	-1.4010563	1.0137341	-0.0084690829	-1.1916957	1.3954432	-0.16709406	-1.2270307	1.4050411	0.15957388	-1.2717546	1.4555417	-0.0074159051	-1.3088612	1.0396988	-0.25930543	-1.4062444	1.0942355	0.24415706	-1.0750795	0.90335954	-0.21860608	-1.3246134	0.83480219	0.26488657
7	0.024	-1.4831104	0.036331641	-0.058222213	-0.87137274	0.08786193	0.062402156	-1.6329217	0.082812785	-0.083307838	-1.0218933	0.070564896	0.084941758	-1.6009687	0.099267079	0.0084531452	-1.011912	0.1110436	-0.0045430444	NaN	NaN	NaN	-1.0724943	0.03277205	0.027785078	-1.4779254	0.47268379	-0.14815873	-1.0989364	0.52157729	0.1372134	-1.4739805	0.47237296	-0.021415131	-1.0926542	0.50647261	0.01050197	-1.347699	0.87269596	-0.19103461	-1.3108223	0.86576874	0.17817492	-1.2374527	0.94087836	-0.14028285	-1.228709	0.94707057	0.10078629	-1.3946821	1.011846	-0.0082752731	-1.1853426	1.3938252	-0.16684229	-1.2212224	1.4032101	0.15983096	-1.265697	1.4535359	-0.0073262813	-1.3017136	1.037729	-0.2595065	-1.3999772	1.0920273	0.24403535	-1.0671429	0.90300436	-0.21793791	-1.3180969	0.83286205	0.26550755
8	0.028	-1.4830682	0.036286399	-0.0582417	-0.85369962	0.091710199	0.063115212	-1.6325334	0.083574822	-0.083255962	-1.0040759	0.070788535	0.085458464	-1.6004545	0.099802553	0.0084918504	-0.99475102	0.11162417	-0.0039870841	NaN	NaN	NaN	-1.0534405	0.031748631	0.028717502	-1.4744969	0.47233967	-0.14815664	-1.0916566	0.52006969	0.13770672	-1.470471	0.47202937	-0.021433624	-1.0851981	0.50492296	0.010623181	-1.3418417	0.87124466	-0.19058305	-1.3043038	0.86379652	0.17839839	-1.2313387	0.93916289	-0.14032791	-1.2217149	0.94525539	0.10067535	-1.388163	1.0099398	-0.0076799373	-1.1789693	1.3922065	-0.16658381	-1.2153769	1.4013839	0.16010767	-1.2595925	1.4515939	-0.0071678111	-1.2945661	1.0357855	-0.25966898	-1.3936851	1.0898288	0.24389652	-1.0592589	0.90257938	-0.21728778	-1.3115186	0.83091883	0.26611913
9	0.032	-1.4830213	0.036247513	-0.058265326	-0.83653959	0.095769936	0.063678837	-1.6320951	0.084375662	-0.083281348	-0.98635187	0.071342301	0.08613991	-1.5999558	0.1003818	0.0084688685	-0.97807713	0.11234188	-0.0034473406	NaN	NaN	NaN	-1.0348411	0.030903735	0.029670838	-1.470924	0.47195304	-0.14816988	-1.0845654	0.51849436	0.1381132	-1.4668006	0.47165293	-0.02145979	-1.0777921	0.50334576	0.010713771	-1.3359743	0.86980068	-0.19021507	-1.2976794	0.86182566	0.17862766	-1.2252056	0.93748083	-0.14039267	-1.2145569	0.94343602	0.10051716	-1.3814072	1.008013	-0.0064519065	-1.1726151	1.3906037	-0.16632848	-1.2094752	1.3995671	0.16039706	-1.2534413	1.4498056	-0.0069586703	-1.2874256	1.0338835	-0.25977801	-1.3873664	1.0876492	0.24373578	-1.0514332	0.90209063	-0.2166603	-1.3048783	0.82898848	0.26671618
